<?xml version="1.0" encoding="UTF-8"?>
<!DOCTYPE svg PUBLIC "-//W3C//DTD SVG 1.1//EN" "http://www.w3.org/Graphics/SVG/1.1/DTD/svg11.dtd">
<svg version="1.1" xmlns="http://www.w3.org/2000/svg" xmlns:xlink="http://www.w3.org/1999/xlink" width="20.7969"
  height="20.4531">
  <g>
    <rect height="20.4531" opacity="0" width="20.7969" x="0" y="0" />
    <path
      d="M0 10.2188C0 10.9062 0.578125 11.4844 1.26562 11.4844L8.95312 11.4844L8.95312 19.1719C8.95312 19.8438 9.53125 20.4375 10.2188 20.4375C10.9062 20.4375 11.4688 19.8438 11.4688 19.1719L11.4688 11.4844L19.1719 11.4844C19.8438 11.4844 20.4219 10.9062 20.4219 10.2188C20.4219 9.53125 19.8438 8.95312 19.1719 8.95312L11.4688 8.95312L11.4688 1.26562C11.4688 0.59375 10.9062 0 10.2188 0C9.53125 0 8.95312 0.59375 8.95312 1.26562L8.95312 8.95312L1.26562 8.95312C0.578125 8.95312 0 9.53125 0 10.2188Z"
      fill="#fcf6e8" fill-opacity="0.85" />
  </g>
</svg>