<svg fill="none" height="28" viewBox="0 0 28 28" width="28" xmlns="http://www.w3.org/2000/svg"><g fill="#fff"><path d="m15 16c0 .5285-.4576 1-1 1-.5285 0-1.002-.4715-1.002-1l-.0001-10.6334.0834-1.66876-.5814.59797-1.4999 1.66876c-.1669.20859-.4635.29204-.6999.29204-.51457 0-.9002-.36158-.9002-.86221 0-.26421.1075-.4728.3022-.65359l3.5478-3.40706c.2642-.26421.4996-.33375.75-.33375.2642 0 .4996.06954.75.33375l3.55 3.40706c.1808.18079.3001.38938.3001.65359 0 .50063-.3855.86221-.9.86221-.2503 0-.5192-.08345-.7-.29204l-1.5001-1.66876-.58-.59797.08 1.66876z"/><path d="m24.0006 21.5-.0001-10c0-2.32238-1.1681-3.49993-3.5462-3.49993l-3.4538-.00007v2.0025l3.4261.0001c.9873 0 1.5714.5424 1.5714 1.5992l.0001 9.7982c0 1.0569-.5841 1.6-1.5714 1.6h-12.85216c-1.00126 0-1.57142-.5431-1.57142-1.6l-.00012-9.7982c0-1.0568.57016-1.5992 1.57141-1.5992l3.42609-.0001v-2.0025l-3.45389.00007c-2.36409 0-3.54612 1.16366-3.54612 3.49993l.00012 10c0 2.3363 1.18203 3.5 3.54612 3.5h12.90777c2.378 0 3.5461-1.1637 3.5461-3.5z"/></g></svg>