<?xml version="1.0" encoding="UTF-8"?>
<!DOCTYPE svg PUBLIC "-//W3C//DTD SVG 1.1//EN" "http://www.w3.org/Graphics/SVG/1.1/DTD/svg11.dtd">
<svg version="1.1" xmlns="http://www.w3.org/2000/svg" xmlns:xlink="http://www.w3.org/1999/xlink" width="19.9961"
  height="19.6484">
  <g>
    <rect height="19.6484" opacity="0" width="19.9961" x="0" y="0" />
    <path
      d="M0.357446 19.2852C0.857446 19.7695 1.66995 19.7695 2.15432 19.2852L9.81057 11.6133L17.4824 19.2852C17.9512 19.7695 18.7793 19.7695 19.2637 19.2852C19.7481 18.7852 19.7481 17.9727 19.2637 17.5039L11.5918 9.83203L19.2637 2.17578C19.7481 1.69141 19.7637 0.863281 19.2637 0.378906C18.7637-0.0898438 17.9512-0.0898438 17.4824 0.378906L9.81057 8.05078L2.15432 0.378906C1.66995-0.0898438 0.841821-0.105469 0.357446 0.378906C-0.111304 0.878906-0.111304 1.69141 0.357446 2.17578L8.02932 9.83203L0.357446 17.5039C-0.111304 17.9727-0.126929 18.8008 0.357446 19.2852Z"
      fill="#fcf6e8" fill-opacity="0.85" />
  </g>
</svg>